<svg version="1.2" xmlns="http://www.w3.org/2000/svg" viewBox="0 0 685 446" width="685" height="446">
	<title>logo</title>
	<style>
		.s0 { fill: #000000 } 
		.s1 { fill: #d2a56e } 
	</style>
	<g>
		<path class="s0" d="m273 119c-18.9 5.1-35.6 18.9-32.1 26.6 1.8 4 5.1 3.1 10.3-2.9 14-16.3 45.2-19.9 55.2-6.5 2.7 3.8 2.5 11-0.4 16.8-3.4 6.7-12 14.4-20.3 18.4-7.3 3.5-14.7 5.5-14.7 4 0-0.4 1.9-7.7 4.2-16.2 4.3-15.9 4.3-18.3 0.4-19-3.2-0.7-6.6 3.9-9.1 12.3-1.3 4.4-4.5 16.1-7 26-9.9 38.6-9 36.3-15.4 42.5-9.2 8.9-11.3 16.5-6.8 24.5 6.9 12.1 22 15.3 40.8 8.5 20.2-7.3 34.7-22.8 38.5-41.1 3.2-15.5-2.3-27.3-15.3-32.6-2.4-1-4.3-2.1-4.3-2.5 0-0.3 2-1.8 4.3-3.2 6.4-3.7 15.2-13.6 17.1-19.2 5.1-15.1-2-30.9-16.3-35.9-7.4-2.7-20.3-2.9-29.1-0.5zm19.8 69.6c10.3 3 14.7 8.8 14 18.4-1 14.6-15.1 30.2-33.1 36.9-15.2 5.6-30.9-0.4-27.1-10.3 0.5-1.3 1.4-1.5 3.9-1 3.6 0.6 4.1 0.2 6.5-6 1.8-4.8 5.5-6.3 18.4-7.7 4.9-0.5 9.5-1.4 10.3-2 1.9-1.7 1.6-5.7-0.6-6.9-2.6-1.3-10.7-1.3-17.1 0.1-2.8 0.6-5.4 0.8-5.8 0.4-0.7-0.6 4.3-21.3 5.3-22.4 2.2-2.2 17.4-1.9 25.3 0.5z"/>
		<path class="s0" d="m502.6 179.3c-0.9 1.2-2.9 8.9-4.6 17.1-1.7 8.2-4.5 20.1-6.1 26.5-3.3 12.7-3.2 15.7 0.7 16.7 2.5 0.7 6.4-1.7 6.4-4 0-2.2 9-21 13-27.1 6.5-9.9 17.4-19.4 19.8-17.1 0.9 1-2.6 16.6-6.6 29.6-4.2 13.5-4.5 16.7-1.7 18.5 3.4 2.2 6.3 0.2 9.1-6.2 9.3-21.1 18-34.8 25.3-39.6 8.2-5.5 8.7-3.5 3.5 13.3-1.9 6.3-3.8 13.8-4.1 16.6-1.1 9.9 3.3 16.4 10.9 16.4 5.4 0 10.1-2.4 15.6-8.1l4.6-4.7 2.7 4.3c4 6.4 11.8 9.9 20.2 9.3 4-0.4 8.4-1.5 12-3.3 10.3-5.1 23.7-19.3 23.7-25.1 0-2.7-3.2-4.8-5.9-3.9-1.1 0.3-2.7 1.8-3.7 3.3-3.1 4.8-11.7 13.3-15.9 15.7-5.4 3.2-11.8 4.5-16 3.4-4.1-1.2-7.5-5.2-7.5-8.9 0-2.5 0.4-2.8 4.8-3.4 10.8-1.4 23.2-10.1 27.3-18.9 3.7-8.3 1.9-18.1-4.1-21.2-7.2-3.7-17-0.6-24.9 8.1-4.6 5-6 7.4-13.6 23.6-4.5 9.6-13.9 20.2-17.6 19.6-4.6-0.6-4.6-4.3-0.1-18.8 2.5-7.6 4.2-15.1 4.2-17.8 0-6.4-2.8-10.9-7.4-11.7-5.6-1.1-10.2 1.2-18.3 8.8-7.2 6.9-7.5 7-7.2 4.2 0.5-6.6-0.1-9.6-2.6-12-5.2-5.3-14.1-2.3-24.4 8.4-3.6 3.6-6.1 5.7-5.7 4.6 0.4-1.1 1.3-4.6 1.8-7.7 1-4.8 0.9-6-0.6-8.2-2-3.2-5.1-3.3-7-0.3zm120.1 12.3c-1.1 6.7-9 14.3-17 16.5-6.4 1.7-7.2 0.8-4.2-5.1 5.2-10.2 15.2-18.3 19.8-15.8 1.5 0.8 1.8 1.7 1.4 4.4z"/>
		<path fill-rule="evenodd" class="s1" d="m125 6.1c10.2 11.2 14.6 23.9 13.7 39.7-0.7 14.9-5.5 26.6-21.1 51.7-11.4 18.4-13.8 24.5-14.4 36.5-0.4 8.2-0.1 10.5 2.1 17 2.7 7.9 2.6 9.5-0.5 11.1-5.6 3-11.2-9.5-11.2-25.1-0.1-14.8 3.2-23.8 15.9-44 13.1-21 17.6-31.2 19.7-44.6 2-12.9-1.6-24.9-10.5-35.3-5.2-6.1-5.4-6.7-3-9.3 2.5-2.8 5.2-2.2 9.3 2.3zm-45.4 39.6c7.2 5.4 11.4 14.4 11.4 24 0 8.8-2.8 14.8-15.5 33.3-14.9 21.7-17.9 29.9-15.1 41 0.9 3.3 2.7 7.7 4.1 9.8 3 4.4 3.1 6.3 0.6 8.6-2.8 2.6-5.6 1.2-8.7-4-6.8-11.5-7.9-23.9-3.4-35.8 1.3-3.3 7.1-13.2 13-22 12.8-19.1 14.9-23.2 15.7-29.6 0.7-6.4-2.8-14.3-8.6-18.9-4.5-3.5-5-5.4-2.4-8.3 1.9-2.1 4.3-1.7 8.9 1.9zm80.5 15.3c3.7 0 6.8 4.8 8.9 13.9 2.8 11.9-1 23.7-13.4 41.5-10.1 14.5-12 18.8-12.1 27.3 0 5.9 0.4 7.7 2.3 10.2 2.7 3.7 2.8 5.3 0.2 7.6-2.8 2.6-6.3 0.8-9.2-4.7-1.8-3.5-2.2-6-2.3-13.3 0-11 1.5-14.6 13.3-32 4.4-6.6 9-14.4 10.1-17.3 2.8-7.1 2.8-16.3 0-23.6-2.1-5.4-2.1-5.7-0.4-7.6 1-1.1 2.2-2 2.6-2zm-13.1 119.5c28.4 2.7 46.1 8.2 56.2 17.3 7.8 7.1 8.3 11.2 3.8 37.2-3.9 22.4-3.5 21-6.6 25.6-2.5 3.5-3.1 6.5-6.6 32.4-13.1 96.1-15.9 114.4-18.4 119.7-7.6 15.9-33.6 25.3-69.4 25.3-37.8 0-64.1-11.5-68.3-30-1.2-5-7.8-48.6-14.7-96.5-5.8-40.7-7.3-49.4-9-51.5-4.2-5.3-5.2-8.7-8.2-28.3-2.7-17.5-2.9-20.8-1.9-24.5 3.8-13.6 27.5-23.8 63.1-27.1 15.7-1.4 63.9-1.2 80 0.4zm-74 8.5c-41 3-67.7 15.5-56.2 26.2 1.5 1.4 4 3.2 5.6 4 2.8 1.4 3.3 1.3 10.4-1.9 16.1-7.5 38.9-10.7 74.7-10.7 36.5 0 56.1 3 72.2 10.9l7.2 3.6 5-2.5c11.9-6.1 10.6-12.8-3.9-19.5-7.9-3.7-18.5-6.5-32.8-8.6-12.3-1.9-64.9-2.8-82.2-1.5zm-3 28.6c-14.2 1.6-26.1 3.9-29.5 5.7-1.9 1-1.9 1 0.2 1.8 5.4 2 28.7 5.1 46.5 6.1 23.1 1.4 51 0.1 70.8-3.3 17.6-3 18-3.2 9.2-5.8-11.7-3.5-21-5-38.9-6.1-22.9-1.4-36-1-58.3 1.6zm-56.5 8.4c-0.1 0 0.6 5.4 1.6 12.1 1.7 11.8 2.5 13.8 6.9 17.7 2.9 2.6 13.6 7 22 9.1 18.8 4.6 27.9 5.5 60 5.5 34 0.1 48.2-1.2 68.8-6.4 12.5-3.2 19.5-6.7 21.6-10.8 1.4-2.7 5.1-25 4.3-25.8-0.2-0.2-2.8 0.7-5.8 2-16.9 7.4-38.5 10.6-76.6 11.3-45.7 0.8-73.1-2.5-95.2-11.6-4.1-1.7-7.5-3.1-7.6-3.1zm12.8 42.3c-1.6-0.6-1.9-2.9 2.1 21.9 1.9 11.7 5.3 33.7 7.6 48.8 7.5 50.6 7.1 49 11.1 52.8 4.5 4.5 15.3 9.9 24.3 12.2 17.8 4.5 47.1 5 66.2 1.1 11.1-2.3 24.4-8.3 30-13.7l4.2-3.9 6.7-48c3.7-26.4 7.5-52.7 8.5-58.5 1-5.8 1.7-10.6 1.5-10.8-0.2-0.2-5.7 1-12.3 2.7-34.8 8.7-82.7 10.6-118.5 4.6-4.8-0.8-13.6-3.1-19.5-5.1-5.9-1.9-11.3-3.8-11.9-4.1zm143.8 130.8c-0.3 0-3.1 1.8-6.1 3.9-6.5 4.7-18 9.4-28.8 11.8-6.1 1.3-12.4 1.7-29.7 1.6-20.4 0-22.7-0.2-31.6-2.6-10-2.7-17.4-6-24.6-11-4.7-3.2-4.8-3.1-3.2 2.7 2.2 8.2 8.5 13.4 21.7 18.2 19.8 7.2 58.6 7.1 79.4-0.2 13.6-4.7 20.6-11 22.6-20.3 0.6-2.3 0.7-4.2 0.3-4.1zm-113.3-96.8c0.6 0.7 2.3 14.1 3.7 29.8 1.4 15.6 3 32.3 3.5 37.1 0.6 4.7 0.7 9.3 0.4 10.2-0.9 2.4-5.3 2-6.4-0.7-0.5-1.2-1.8-12.3-2.9-24.7-4.3-49-4.4-49.9-3.1-51.5 1.5-1.9 3.4-1.9 4.8-0.2zm105.6-1c2.7 0.9 3 3.9 1.7 17.9-1.8 20-6 57.9-6.7 60.1-0.4 1.3-1.4 1.7-3.2 1.5-2.1-0.2-2.8-0.9-3-3.2-0.2-1.6 1.3-18.9 3.3-38.5 3-28.2 4.1-35.9 5.3-36.9 0.9-0.7 2.1-1.1 2.6-0.9zm-69.4 6.7c1.3 0.8 1.5 6.3 1.8 37.7 0.2 20.2 0 37.8-0.3 39.1-0.4 1.6-1.3 2.2-3.4 2.2-1.7 0-3.1-0.6-3.5-1.6-0.3-0.9-0.6-18.4-0.6-38.9 0-34.6 0.1-37.5 1.8-38.4 2.1-1.3 2.3-1.3 4.2-0.1zm37.4 0.5c0.9 1 1.4 2.7 1.1 4.3-0.2 1.5-0.9 18.4-1.6 37.7-1.2 37-1.5 39.5-5.7 36.9-2.4-1.6-2.6-7.5-1.2-45.4 1-27.8 1.4-32.7 2.8-33.8 2.1-1.6 2.7-1.5 4.6 0.3z"/>
		<path class="s0" d="m339.6 180.1c-2.5 1.5-6 9.9-9.6 23.1-4.2 15.7-4.9 24.1-2.2 30 2.7 6.2 5.9 8.2 12.2 7.6 5.7-0.6 12-4.4 15.4-9.5l2.2-3.2 2.1 5c1.7 3.9 2.9 5.3 5.9 6.5 7.6 3.2 17.5-1.3 24.4-10.8l2.8-3.9 1.6 4.9c2.7 7.9 7.1 10.9 15.2 10.4 1.2-0.1 4.5-1.8 7.3-3.7l5.2-3.6-0.7 2.8c-1.2 4.9-2 5.7-14 12.8-23.6 13.9-31.4 26-25.5 39 3.6 8 11 11.7 19.2 9.5 5.6-1.5 13.5-9.6 17.5-18 2.9-6 4.3-10.2 8.8-26 1.2-4.4 2.2-5.9 4.8-7.4 11.6-6.7 30-24.4 34.5-32.9 1.3-2.5 1.3-3.1-0.2-5.3-2.7-4.1-5.2-2.7-13.9 8-7.3 8.9-18.9 19.6-20.1 18.5-0.5-0.6 7.4-31.8 10.6-41.8 1.9-5.8 2.1-7.5 1.1-9.6-1.3-2.8-5.2-3.4-7-1.2-0.6 0.7-3.6 7.3-6.7 14.7-3 7.4-7.4 16.7-9.7 20.8-4.6 8-10.9 14.5-13.6 14-5.5-1.1-5.4-15.6 0.2-31.8 4.3-12.6 4.6-16.3 1.1-18.6-1.3-0.8-3.3-1.3-4.3-1-2.2 0.7-3.2 2.6-8.3 17-5.4 15-11.2 25.7-16.5 30.6-5.1 4.7-8.1 5-10.2 1-2.7-5.1 0.7-23.3 6.7-36.1 3.4-7.1 3.8-10.1 1.6-11.9-4.4-3.7-9.3 2.3-15.2 18.7-1.9 5.4-4.6 12-5.9 14.7-6 11.8-14.3 19.6-17.8 16.7-3.4-2.8-1-20 4.8-35.1 4.7-12 4.6-11.6 3-13.9-1.7-2.3-3.9-2.6-6.8-1zm75.8 77.6c-1.6 6.6-5.9 17.1-8.5 21-5.8 8.4-11.1 10.4-14.8 5.7-3.8-4.9-2.3-10 5.1-17.1 4.2-4 16.3-12.3 18-12.3 0.4 0 0.5 1.2 0.2 2.7z"/>
		<path class="s0" d="m458.7 266.7c-10.5 7.9-20.9 30.2-28.8 62-3 12.2-3.4 13.1-8.6 19.3-7.8 9.3-17.8 17.8-25.3 21.3-22.4 10.7-35-3.7-23.6-26.7 4.8-9.8 13.6-19.1 18.9-20.1 6.5-1.2 8.2 2.1 5.2 10.5-2.2 6.2-1.9 8.8 0.9 10.2 4.8 2.1 8-1.4 9.8-11 2.2-11.6-3.2-19.2-13.5-19.2-6.8 0-11.1 2.3-19.3 10.4-12.4 12.4-18.5 27.2-16.4 40.1 2.2 13.5 12.6 20.5 28.8 19.3 7.9-0.5 16.9-5 27.2-13.3 4.7-3.9 8-6 7.6-4.9-0.5 1-1 4.6-1.3 7.9-0.5 5.2-0.3 6.2 1.6 7.9 3.7 3.3 6.8 1.3 12.1-7.9 12.8-22.3 33-44.9 36.7-41.1 0.7 0.6 0.3 1.9-4.7 15.8-5.3 15-5 26.9 1 32.3 5.1 4.7 14.6 2.3 23.6-5.8l5.2-4.7 0.6 3.5c0.9 4.9 5.7 9.2 10.9 10 7.4 1.1 15.7-3 23.8-11.8l3.6-3.9 1.2 4.7c1.7 6.8 5.7 10.5 11.3 10.5 5.5-0.1 11.1-2.6 17.2-8.1l4.8-4.3-0.7 3.5c-1.4 6.5-2.9 8.2-13.1 14.3-18.3 11-26 18-31.1 28-3.4 6.7-3.5 14.9-0.4 20 5.9 9.5 22.5 10.3 30.8 1.4 6.4-6.9 13.6-22.8 17.6-39.1l2.3-9.2 6.5-4.8c3.5-2.7 8.6-6.6 11.2-8.9 2.7-2.2 5.1-3.8 5.3-3.5 0.3 0.3 1.3 2 2.2 3.8 5.3 10.3 19.8 9.6 32.9-1.6 2.3-1.9 4.3-3.5 4.6-3.5 0.3 0 0.8 1.4 1.2 3 0.4 1.7 2 4.4 3.7 6 2.6 2.6 3.7 3 8.4 3 7.4 0 13.6-3.3 20.6-10.9 7.7-8.3 12-16 11.6-20.8-0.3-3.4-0.6-3.8-3.4-4.1-2.8-0.3-3.4 0.2-8.1 8-7.8 12.8-16.7 19.9-21.2 17.1-2.5-1.6-2.6-10.4-0.1-18.5 1.1-3.8 3.9-11 6-16 4.1-9.5 4.9-13.5 2.8-15.6-1.8-1.8-5.3-1.4-7.2 0.7-1.7 1.9-1.8 1.9-5.3-0.5-6.2-4.2-12.4-5.3-18.4-3.2-9.6 3.2-18.1 12.5-25.6 27.8-3.9 7.8-6.2 11-13.1 18-4.7 4.7-8.7 8-8.9 7.3-0.6-1.7 5-22.5 9.5-35.4 3.5-10.3 3.6-10.7 1.9-13.2-3.2-5-6.9-3-10.1 5.3-2.7 6.9-11.2 22.6-15.5 28.3-5.2 7.1-13.6 14.7-16.1 14.7-5.4 0-4.9-13.1 1.2-30.3 2.1-6.1 4.4-12.6 5-14.4 1.5-4.4-1-8.3-5.2-8.3-4.2 0-5.7 2.7-11 19.5-5.9 18.9-26.4 39.7-32.8 33.3-2.8-2.8-0.4-16.6 6.4-37.1 3.7-11.1 3.9-14.9 0.7-16.1-3.9-1.5-6.6 2.5-11.4 16.7-4.5 13.1-9.2 22.1-15.2 28.7-7.3 8.1-14 10.5-15.3 5.4-1.1-4.2 0.3-10.5 4.6-21.8 5.1-13.5 5.4-19.4 1.1-23.7-3.5-3.5-7.6-3.8-13.8-0.9-4 1.8-19.7 16.4-25.7 23.9-1.5 1.8-2.9 3.1-3.2 2.9-0.2-0.3 0.5-3.5 1.6-7.1 2-6.5 2.2-6.7 8.3-9.9 9.8-5.2 22.2-18.2 27.9-29.3 4.4-8.7 7.8-19.5 7.8-24.6-0.1-4.2-3.6-10.7-6.9-12.3-4.8-2.5-11.1-2.1-15.4 1.1zm11.1 8.5c3 3-0.9 15.6-8.3 26.8-5.7 8.5-18.5 20.7-18.5 17.6 0-0.3 1.6-5.3 3.6-11.3 4.7-14.4 10.4-26 15-30.6 3.9-3.8 6.2-4.5 8.2-2.5zm170.7 55.3c3.5 3.4 3.2 7.8-1 16.1-6.5 13-17.7 24.1-25.4 25.1-3.3 0.5-4.1 0.2-5.1-1.7-1.5-2.8-0.8-9.5 1.5-16.5 1.9-5.6 8.9-16.8 12.6-20.2 6.3-5.7 13.4-6.9 17.4-2.8zm-78.5 66c0 1.9-6 17.7-8.9 23.4-1.2 2.3-3.8 6-5.8 8.1-2.9 3.3-4.2 4-7.2 4-2 0-4.7-0.7-6-1.6-2-1.5-2.3-2.3-1.9-6.5 0.8-8.2 8.2-16.4 23.1-25.6 6-3.7 6.7-3.8 6.7-1.8z"/>
		<path class="s0" d="m515.6 293.2c-3.2 4.6-0.7 10.8 4.3 10.8 5.1 0 7.8-6 5.1-11.1-1.5-2.8-7.4-2.6-9.4 0.3z"/>
		<path class="s0" d="m267.8 318c-14.5 4.3-30.2 29.1-30.1 47.2 0.1 15.5 10.4 21.2 25.6 14 3.4-1.6 7.9-4.4 9.9-6.3l3.7-3.5 1.6 4.3c2.3 6 5.6 8.3 11.9 8.3 7.1-0.1 12.8-3 20-10.3 6.4-6.5 13.6-18.7 13.6-22.9 0-3-1.7-4.8-4.7-4.8-1.6 0-3.1 1.3-4.9 4.2-8.8 14-12.1 18.3-16.3 21-5.5 3.5-7.6 3.5-9.7 0.3-2.9-4.4-0.6-14.8 7.7-34.2 4.4-10.3 4.6-11.5 2.3-13.7-2.2-2.3-5.9-2-7.6 0.6l-1.5 2.2-3.4-2.6c-5.4-4.1-12.3-5.6-18.1-3.8zm12.6 13.1c1.4 1.7 2.6 4 2.6 5.2 0 4.3-7.8 18.2-14 25-15.4 16.7-25.2 13.3-19-6.5 4.3-14.1 15.8-26.8 24.1-26.8 2.9 0 4.3 0.7 6.3 3.1z"/>
	</g>
</svg>