<svg version="1.2" xmlns="http://www.w3.org/2000/svg" viewBox="0 0 446 446" width="446" height="446">
	<title>logo</title>
	<style>
		.s0 { fill: #ffa4e0 } 
		.s1 { fill: #000000 } 
	</style>
	<g>
		<path id="Shape 1" fill-rule="evenodd" class="s0" d="m223 446c-123.3 0-223-99.7-223-223 0-123.3 99.7-223 223-223 123.3 0 223 99.7 223 223 0 123.3-99.7 223-223 223z"/>
		<path fill-rule="evenodd" class="s1" d="m241 9.1c10.2 11.2 14.6 23.9 13.7 39.7-0.7 14.9-5.5 26.6-21.1 51.7-11.4 18.4-13.8 24.5-14.4 36.5-0.4 8.2-0.1 10.5 2.1 17 2.7 7.9 2.6 9.5-0.5 11.1-5.6 3-11.2-9.5-11.2-25.1-0.1-14.8 3.2-23.8 15.9-44 13.1-21 17.6-31.2 19.7-44.6 2-12.9-1.6-24.9-10.5-35.3-5.2-6.1-5.4-6.7-3-9.3 2.5-2.8 5.2-2.2 9.3 2.3zm-45.4 39.6c7.2 5.4 11.4 14.4 11.4 24 0 8.8-2.8 14.8-15.5 33.3-14.9 21.7-17.9 29.9-15.1 41 0.9 3.3 2.7 7.7 4.1 9.8 3 4.4 3.1 6.3 0.6 8.6-2.8 2.6-5.6 1.2-8.7-4-6.8-11.5-7.9-23.9-3.4-35.8 1.3-3.3 7.1-13.2 13-22 12.8-19.1 14.9-23.2 15.7-29.6 0.7-6.4-2.8-14.3-8.6-18.9-4.5-3.5-5-5.4-2.4-8.3 1.9-2.1 4.3-1.7 8.9 1.9zm80.5 15.3c3.7 0 6.8 4.8 8.9 13.9 2.8 11.9-1 23.7-13.4 41.5-10.1 14.5-12 18.8-12.1 27.3 0 5.9 0.4 7.7 2.3 10.2 2.7 3.7 2.8 5.3 0.2 7.6-2.8 2.6-6.3 0.8-9.2-4.7-1.8-3.5-2.2-6-2.3-13.3 0-11 1.5-14.6 13.3-32 4.4-6.6 9-14.4 10.1-17.3 2.8-7.1 2.8-16.3 0-23.6-2.1-5.4-2.1-5.7-0.4-7.6 1-1.1 2.2-2 2.6-2zm-13.1 119.5c28.4 2.7 46.1 8.2 56.2 17.3 7.8 7.1 8.3 11.2 3.8 37.2-3.9 22.4-3.5 21-6.6 25.6-2.5 3.5-3.1 6.5-6.6 32.4-13.1 96.1-15.9 114.4-18.4 119.7-7.6 15.9-33.6 25.3-69.4 25.3-37.8 0-64.1-11.5-68.3-30-1.2-5-7.8-48.6-14.7-96.5-5.8-40.7-7.3-49.4-9-51.5-4.2-5.3-5.2-8.7-8.2-28.3-2.7-17.5-2.9-20.8-1.9-24.5 3.8-13.6 27.5-23.8 63.1-27.1 15.7-1.4 63.9-1.2 80 0.4zm-74 8.5c-41 3-67.7 15.5-56.2 26.2 1.5 1.4 4 3.2 5.6 4 2.8 1.4 3.3 1.3 10.4-1.9 16.1-7.5 38.9-10.7 74.7-10.7 36.5 0 56.1 3 72.2 10.9l7.2 3.6 5-2.5c11.9-6.1 10.6-12.8-3.9-19.5-7.9-3.7-18.5-6.5-32.8-8.6-12.3-1.9-64.9-2.8-82.2-1.5zm-3 28.6c-14.2 1.6-26.1 3.9-29.5 5.7-1.9 1-1.9 1 0.2 1.8 5.4 2 28.7 5.1 46.5 6.1 23.1 1.4 51 0.1 70.8-3.3 17.6-3 18-3.2 9.2-5.8-11.7-3.5-21-5-38.9-6.1-22.9-1.4-36-1-58.3 1.6zm-56.5 8.4c-0.1 0 0.6 5.4 1.6 12.1 1.7 11.8 2.5 13.8 6.9 17.7 2.9 2.6 13.6 7 22 9.1 18.8 4.6 27.9 5.5 60 5.5 34 0.1 48.2-1.2 68.8-6.4 12.5-3.2 19.5-6.7 21.6-10.8 1.4-2.7 5.1-25 4.3-25.8-0.2-0.2-2.8 0.7-5.8 2-16.9 7.4-38.5 10.6-76.6 11.3-45.7 0.8-73.1-2.5-95.2-11.6-4.1-1.7-7.5-3.1-7.6-3.1zm12.8 42.3c-1.6-0.6-1.9-2.9 2.1 21.9 1.9 11.7 5.3 33.7 7.6 48.8 7.5 50.6 7.1 49 11.1 52.8 4.5 4.5 15.3 9.9 24.3 12.2 17.8 4.5 47.1 5 66.2 1.1 11.1-2.3 24.4-8.3 30-13.7l4.2-3.9 6.7-48c3.7-26.4 7.5-52.7 8.5-58.5 1-5.8 1.7-10.6 1.5-10.8-0.2-0.2-5.7 1-12.3 2.7-34.8 8.7-82.7 10.6-118.5 4.6-4.8-0.8-13.6-3.1-19.5-5.1-5.9-1.9-11.3-3.8-11.9-4.1zm143.8 130.8c-0.3 0-3.1 1.8-6.1 3.9-6.5 4.7-18 9.4-28.8 11.8-6.1 1.3-12.4 1.7-29.7 1.6-20.4 0-22.7-0.2-31.6-2.6-10-2.7-17.4-6-24.6-11-4.7-3.2-4.8-3.1-3.2 2.7 2.2 8.2 8.5 13.4 21.7 18.2 19.8 7.2 58.6 7.1 79.4-0.2 13.6-4.7 20.6-11 22.6-20.3 0.6-2.3 0.7-4.2 0.3-4.1zm-113.3-96.8c0.6 0.7 2.3 14.1 3.7 29.8 1.4 15.6 3 32.3 3.5 37.1 0.6 4.7 0.7 9.3 0.4 10.2-0.9 2.4-5.3 2-6.4-0.7-0.5-1.2-1.8-12.3-2.9-24.7-4.3-49-4.4-49.9-3.1-51.5 1.5-1.9 3.4-1.9 4.8-0.2zm105.6-1c2.7 0.9 3 3.9 1.7 17.9-1.8 20-6 57.9-6.7 60.1-0.4 1.3-1.4 1.7-3.2 1.5-2.1-0.2-2.8-0.9-3-3.2-0.2-1.6 1.3-18.9 3.3-38.5 3-28.2 4.1-35.9 5.3-36.9 0.9-0.7 2.1-1.1 2.6-0.9zm-69.4 6.7c1.3 0.8 1.5 6.3 1.8 37.7 0.2 20.2 0 37.8-0.3 39.1-0.4 1.6-1.3 2.2-3.4 2.2-1.7 0-3.1-0.6-3.5-1.6-0.3-0.9-0.6-18.4-0.6-38.9 0-34.6 0.1-37.5 1.8-38.4 2.1-1.3 2.3-1.3 4.2-0.1zm37.4 0.5c0.9 1 1.4 2.7 1.1 4.3-0.2 1.5-0.9 18.4-1.6 37.7-1.2 37-1.5 39.5-5.7 36.9-2.4-1.6-2.6-7.5-1.2-45.4 1-27.8 1.4-32.7 2.8-33.8 2.1-1.6 2.7-1.5 4.6 0.3z"/>
	</g>
</svg>